<?xml version="1.0" encoding="UTF-8" standalone="no"?>
<!-- Created with Inkscape (http://www.inkscape.org/) -->

<svg
   xmlns:dc="http://purl.org/dc/elements/1.1/"
   xmlns:cc="http://creativecommons.org/ns#"
   xmlns:rdf="http://www.w3.org/1999/02/22-rdf-syntax-ns#"
   xmlns:svg="http://www.w3.org/2000/svg"
   xmlns="http://www.w3.org/2000/svg"
   xmlns:sodipodi="http://sodipodi.sourceforge.net/DTD/sodipodi-0.dtd"
   xmlns:inkscape="http://www.inkscape.org/namespaces/inkscape"
   width="744.09448819"
   height="1052.3622047"
   id="svg16993"
   version="1.1"
   inkscape:version="0.48.4 r9939"
   sodipodi:docname="owl1.svg">
  <defs
     id="defs16995" />
  <sodipodi:namedview
     id="base"
     pagecolor="#ffffff"
     bordercolor="#666666"
     borderopacity="1.0"
     inkscape:pageopacity="0.0"
     inkscape:pageshadow="2"
     inkscape:zoom="5.6"
     inkscape:cx="294.2346"
     inkscape:cy="593.79721"
     inkscape:document-units="mm"
     inkscape:current-layer="layer1"
     showgrid="false"
     inkscape:window-width="1215"
     inkscape:window-height="1000"
     inkscape:window-x="65"
     inkscape:window-y="24"
     inkscape:window-maximized="1" />
  <metadata
     id="metadata16998">
    <rdf:RDF>
      <cc:Work
         rdf:about="">
        <dc:format>image/svg+xml</dc:format>
        <dc:type
           rdf:resource="http://purl.org/dc/dcmitype/StillImage" />
        <dc:title />
      </cc:Work>
    </rdf:RDF>
  </metadata>
  <g
     inkscape:label="Livello 1"
     inkscape:groupmode="layer"
     id="layer1">
    <g
       id="g17741">
      <path
         sodipodi:nodetypes="cssssssssccssssssssscssaccscsscssssssccssssssssssssssss"
         style="fill:none;stroke:#0000ff;stroke-width:0.03543307;stroke-miterlimit:4;stroke-opacity:1;stroke-dasharray:none"
         d="m 288.2106,400.73351 c 0,3.58383 3.8282,4.59339 11.37326,0.94805 7.27841,-3.51655 8.92942,-3.62548 7.734,-0.51025 -0.54627,1.42357 1.6572,7.3953 5.47178,14.82939 11.02425,21.4847 14.2418,32.19966 14.3813,47.89196 0.19694,22.15276 -6.94671,33.9413 -26.65468,43.98593 -7.52325,3.8344 -9.31714,5.43239 -9.69534,8.63652 -0.37522,3.17893 -1.01168,3.75777 -3.32466,3.02367 -1.57332,-0.49936 -3.74796,-0.17148 -4.83252,0.72863 -1.46912,1.21927 -2.23395,1.21258 -2.99957,-0.0262 l 10e-6,-8e-5 c -0.61603,-0.99675 -2.76143,-1.31601 -5.3562,-0.79705 -4.16036,0.83207 -2.87427,0.69053 -3.66682,-3.64292 -0.74292,-4.06207 -1.02513,-2.54431 -6.79114,-7.24407 -9.3583,-7.62777 -18.65611,-14.32852 -22.98013,-23.13353 -3.51418,-7.15592 -3.99597,-10.6598 -3.90865,-22.07576 0.11588,-15.16291 4.61501,-27.01465 15.27284,-46.72618 4.80932,-8.89478 6.30233,-13.04824 5.63955,-15.68893 -1.04021,-4.14452 -0.28788,-4.4097 4.18886,-1.47641 1.77541,1.16329 6.02343,3.10135 9.44005,4.3068 l 5.43697,0.64163 1.37219,-3.27341 c 0.9698,-2.3135 2.99295,-3.7901 3.71083,-3.7901 0.85507,0 2.32355,0.0379 3.32319,0.54911 1.1979,0.61253 2.8176,1.31717 2.86488,2.84318 z m -17.98171,103.74747 c 1.19287,-0.75469 3.09203,-0.78856 4.41826,-0.0788 1.30568,0.69878 3.22258,0.69081 4.36973,-0.0182 1.21405,-0.75032 2.76679,-0.66293 3.82492,0.21523 1.16904,0.97021 2.64498,0.99493 4.29437,0.0719 1.65838,-0.92807 3.34343,-0.8879 4.95433,0.11806 4.77873,2.98435 19.72592,-9.6183 26.19782,-22.08859 5.00649,-9.64666 4.88459,-27.66273 -0.23808,-35.18508 -7.95897,-11.68731 -23.09577,-12.88031 -32.43859,-2.5566 -2.73959,3.0272 -2.80923,3.0306 -5.78366,0.28209 -10.923,-10.09336 -22.85497,-11.06846 -30.75528,-2.51335 -12.75748,13.81486 -8.57126,36.53806 8.4746,54.0082 9.17381,9.40215 8.06792,7.48612 12.68158,7.74508 z m 2.72415,-74.94913 c 2.7214,-2.32246 3.73935,-5.43941 3.30747,-10.12739 -0.26266,-2.85126 -2.64419,-2.10855 -3.47933,1.08508 -0.41618,1.59145 -1.48911,2.89354 -2.38431,2.89354 -2.30035,0 -3.86999,-4.76822 -1.79709,-5.45918 2.5711,-0.85704 2.04935,-3.22144 -0.71087,-3.22144 -6.54915,0 -10.25048,10.27322 -5.43596,15.08774 2.97599,2.97601 6.82101,2.8814 10.50009,-0.25835 z m 31.498,1.42462 c 5.70532,-3.80955 5.21953,-11.54903 -0.93154,-14.84099 -3.84448,-2.0575 -6.69477,-0.27168 -3.40538,2.13358 1.49272,1.09151 2.12571,2.77606 1.57874,4.20142 -1.3274,3.45918 -3.71462,2.91664 -5.62611,-1.27862 -1.20907,-2.65357 -1.98896,-3.15013 -2.84037,-1.80846 -4.16327,6.56058 4.83816,15.85744 11.22466,11.59307 z"
         id="path17070"
         inkscape:connector-curvature="0" />
      <path
         transform="matrix(1.5797101,0,0,1.5797101,-229.06314,-375.19702)"
         d="m 326.07142,492.27289 a 1.7857143,1.7857143 0 1 1 -3.57143,0 1.7857143,1.7857143 0 1 1 3.57143,0 z"
         sodipodi:ry="1.7857143"
         sodipodi:rx="1.7857143"
         sodipodi:cy="492.27289"
         sodipodi:cx="324.28571"
         id="path17685"
         style="fill:none;stroke:#0000ff;stroke-width:0.03543307;stroke-miterlimit:4;stroke-opacity:1;stroke-dasharray:none"
         sodipodi:type="arc" />
    </g>
  </g>
</svg>
