<?xml version="1.0" encoding="UTF-8" standalone="no"?>
<!-- Created with Inkscape (http://www.inkscape.org/) -->

<svg
   xmlns:dc="http://purl.org/dc/elements/1.1/"
   xmlns:cc="http://creativecommons.org/ns#"
   xmlns:rdf="http://www.w3.org/1999/02/22-rdf-syntax-ns#"
   xmlns:svg="http://www.w3.org/2000/svg"
   xmlns="http://www.w3.org/2000/svg"
   xmlns:sodipodi="http://sodipodi.sourceforge.net/DTD/sodipodi-0.dtd"
   xmlns:inkscape="http://www.inkscape.org/namespaces/inkscape"
   sodipodi:docname="ruote1.svg"
   width="744.09448819"
   height="1052.3622047"
   id="svg2"
   version="1.1"
   inkscape:version="0.48.4 r9939">
  <sodipodi:namedview
     id="base"
     pagecolor="#ffffff"
     bordercolor="#666666"
     borderopacity="1.0"
     inkscape:pageopacity="0.0"
     inkscape:pageshadow="2"
     inkscape:zoom="0.68132437"
     inkscape:cx="372.04724"
     inkscape:cy="526.18109"
     inkscape:document-units="mm"
     inkscape:current-layer="svg2"
     showgrid="false"
     inkscape:window-width="1280"
     inkscape:window-height="958"
     inkscape:window-x="0"
     inkscape:window-y="27"
     inkscape:window-maximized="1" />
  <defs
     id="defs4" />
  <metadata
     id="metadata7">
    <rdf:RDF>
      <cc:Work
         rdf:about="">
        <dc:format>image/svg+xml</dc:format>
        <dc:type
           rdf:resource="http://purl.org/dc/dcmitype/StillImage" />
        <dc:title></dc:title>
      </cc:Work>
    </rdf:RDF>
  </metadata>
  <g
     inkscape:label="Livello 1"
     inkscape:groupmode="layer"
     id="layer1" />
  <g
     id="g3023"
     inkscape:label="Gear12"
     transform="matrix(1.9050829,0,0,1.9050829,409.02897,719.8009)">
    <path
       id="path3025"
       style="fill:none;stroke:#000000"
       d="m 51.805866,-249.44775 3.068,-0.573 13.383,2.72 16.718,10.652 0,3.624 -16.718,10.652 -13.383,2.72 -3.068,-0.573 -3.175,11.848 2.944,1.038 10.23,9.047 9.152,17.583 -1.812,3.139 -19.804,0.866 -12.95,-4.336 -2.371,-2.03 -8.673,8.673 2.03,2.371 4.336,12.95 -0.866,19.804 -3.139,1.812 -17.583,-9.152 -9.0470003,-10.23 -1.03799999,-2.944 -11.84799971,3.175 0.573,3.068 -2.72,13.383 -10.652,16.718 -3.624,0 -10.652,-16.718 -2.72,-13.383 0.573,-3.068 -11.848,-3.175 -1.038,2.944 -9.047,10.23 -17.583,9.152 -3.139,-1.812 -0.866,-19.804 4.336,-12.95 2.03,-2.371 -8.673,-8.673 -2.371,2.03 -12.949996,4.336 -19.804,-0.866 -1.812,-3.139 9.152,-17.583 10.23,-9.047 2.944,-1.038 -3.175,-11.848 -3.068,0.573 -13.383,-2.72 -16.718,-10.652 0,-3.624 16.718,-10.652 13.383,-2.72 3.068,0.573 3.175,-11.848 -2.944,-1.038 -10.23,-9.047 -9.152,-17.583 1.812,-3.139 19.804,-0.866 12.949996,4.336 2.371,2.03 8.673,-8.673 -2.03,-2.371 -4.336,-12.95 0.866,-19.804 3.139,-1.812 17.583,9.152 9.047,10.23 1.038,2.944 11.848,-3.175 -0.573,-3.068 2.72,-13.383 10.652,-16.718 3.624,0 10.652,16.718 2.72,13.383 -0.573,3.068 11.84799971,3.175 1.03799999,-2.944 9.0470003,-10.23 17.583,-9.152 3.139,1.812 0.866,19.804 -4.336,12.95 -2.03,2.371 8.673,8.673 2.371,-2.03 12.95,-4.336 19.804,0.866 1.812,3.139 -9.152,17.583 -10.23,9.047 -2.944,1.038 z"
       inkscape:connector-curvature="0" />
  </g>
  <g
     transform="matrix(1.9050829,0,0,1.9050829,401.69033,1201.2162)"
     inkscape:label="Gear12"
     id="g3117">
    <path
       inkscape:connector-curvature="0"
       d="m 51.805866,-249.44775 3.068,-0.573 13.383,2.72 16.718,10.652 0,3.624 -16.718,10.652 -13.383,2.72 -3.068,-0.573 -3.175,11.848 2.944,1.038 10.23,9.047 9.152,17.583 -1.812,3.139 -19.804,0.866 -12.95,-4.336 -2.371,-2.03 -8.673,8.673 2.03,2.371 4.336,12.95 -0.866,19.804 -3.139,1.812 -17.583,-9.152 -9.0470003,-10.23 -1.03799999,-2.944 -11.84799971,3.175 0.573,3.068 -2.72,13.383 -10.652,16.718 -3.624,0 -10.652,-16.718 -2.72,-13.383 0.573,-3.068 -11.848,-3.175 -1.038,2.944 -9.047,10.23 -17.583,9.152 -3.139,-1.812 -0.866,-19.804 4.336,-12.95 2.03,-2.371 -8.673,-8.673 -2.371,2.03 -12.949996,4.336 -19.804,-0.866 -1.812,-3.139 9.152,-17.583 10.23,-9.047 2.944,-1.038 -3.175,-11.848 -3.068,0.573 -13.383,-2.72 -16.718,-10.652 0,-3.624 16.718,-10.652 13.383,-2.72 3.068,0.573 3.175,-11.848 -2.944,-1.038 -10.23,-9.047 -9.152,-17.583 1.812,-3.139 19.804,-0.866 12.949996,4.336 2.371,2.03 8.673,-8.673 -2.03,-2.371 -4.336,-12.95 0.866,-19.804 3.139,-1.812 17.583,9.152 9.047,10.23 1.038,2.944 11.848,-3.175 -0.573,-3.068 2.72,-13.383 10.652,-16.718 3.624,0 10.652,16.718 2.72,13.383 -0.573,3.068 11.84799971,3.175 1.03799999,-2.944 9.0470003,-10.23 17.583,-9.152 3.139,1.812 0.866,19.804 -4.336,12.95 -2.03,2.371 8.673,8.673 2.371,-2.03 12.95,-4.336 19.804,0.866 1.812,3.139 -9.152,17.583 -10.23,9.047 -2.944,1.038 z"
       style="fill:none;stroke:#000000"
       id="path3119" />
  </g>
</svg>
